INFO: Created TensorFlow Lite XNNPACK delegate for CPU.
W0000 00:00:1778435542.171722   15404 inference_feedback_manager.cc:121] Feedback manager requires a model with a single signature inference. Disabling support for feedback tensors.
ffmpeg version 8.1.1-full_build-www.gyan.dev Copyright (c) 2000-2026 the FFmpeg developers
  built with gcc 15.2.0 (Rev13, Built by MSYS2 project)
  configuration: --enable-gpl --enable-version3 --enable-static --disable-w32threads --disable-autodetect --enable-cairo --enable-fontconfig --enable-iconv --enable-gnutls --enable-lcms2 --enable-libxml2 --enable-gmp --enable-bzlib --enable-lzma --enable-libsnappy --enable-zlib --enable-librist --enable-libsrt --enable-libssh --enable-libzmq --enable-avisynth --enable-libbluray --enable-libcaca --enable-libdvdnav --enable-libdvdread --enable-sdl2 --enable-libaribb24 --enable-libaribcaption --enable-libdav1d --enable-libdavs2 --enable-libopenjpeg --enable-libquirc --enable-libuavs3d --enable-libxevd --enable-libzvbi --enable-liboapv --enable-libqrencode --enable-librav1e --enable-libsvtav1 --enable-libvvenc --enable-libwebp --enable-libx264 --enable-libx265 --enable-libxavs2 --enable-libxeve --enable-libxvid --enable-libaom --enable-libjxl --enable-libsvtjpegxs --enable-libvpx --enable-mediafoundation --enable-libass --enable-frei0r --enable-libfreetype --enable-libfribidi --enable-libharfbuzz --enable-liblensfun --enable-libvidstab --enable-libvmaf --enable-libzimg --enable-amf --enable-cuda-llvm --enable-cuvid --enable-dxva2 --enable-d3d11va --enable-d3d12va --enable-ffnvcodec --enable-libvpl --enable-nvdec --enable-nvenc --enable-vaapi --enable-libshaderc --enable-vulkan --enable-libplacebo --enable-opencl --enable-libcdio --enable-openal --enable-libgme --enable-libmodplug --enable-libopenmpt --enable-libopencore-amrwb --enable-libmp3lame --enable-libshine --enable-libtheora --enable-libtwolame --enable-libvo-amrwbenc --enable-libcodec2 --enable-libilbc --enable-libgsm --enable-liblc3 --enable-libopencore-amrnb --enable-libopus --enable-libspeex --enable-libvorbis --enable-ladspa --enable-libbs2b --enable-libflite --enable-libmysofa --enable-librubberband --enable-libsoxr --enable-chromaprint --enable-whisper
  libavutil      60. 26.101 / 60. 26.101
  libavcodec     62. 28.101 / 62. 28.101
  libavformat    62. 12.101 / 62. 12.101
  libavdevice    62.  3.101 / 62.  3.101
  libavfilter    11. 14.101 / 11. 14.101
  libswscale      9.  5.101 /  9.  5.101
  libswresample   6.  3.101 /  6.  3.101
Input #0, avi, from 'C:\Users\Macie\AppData\Local\Temp\face_track_vl8z2erl\segment_1_17-40_72_18-16_46_silent.avi':
  Metadata:
    software        : Lavf62.12.101
  Duration: 00:00:35.73, start: 0.000000, bitrate: 7397 kb/s
  Stream #0:0: Video: h264 (High) (H264 / 0x34363248), yuvj420p(pc, bt470bg/unknown/unknown, progressive), 1080x1920 [SAR 1:1 DAR 9:16], 7388 kb/s, 60 fps, 60 tbr, 60 tbn
Input #1, mov,mp4,m4a,3gp,3g2,mj2, from 'C:\Users\Macie\AppData\Local\Temp\face_track_vl8z2erl\segment_1_17-40_72_18-16_46_audio.m4a':
  Metadata:
    major_brand     : M4A 
    minor_version   : 512
    compatible_brands: M4A isomiso2
    encoder         : Lavf62.12.101
  Duration: 00:00:35.74, start: 0.000000, bitrate: 195 kb/s
  Stream #1:0[0x1](eng): Audio: aac (LC) (mp4a / 0x6134706D), 48000 Hz, stereo, fltp, 193 kb/s (default)
    Metadata:
      handler_name    : SoundHandler
Stream mapping:
  Stream #0:0 -> #0:0 (h264 (native) -> h264 (libx264))
  Stream #1:0 -> #0:1 (aac (native) -> aac (native))
Press [q] to stop, [?] for help
[swscaler @ 0000020b2c99cb00] deprecated pixel format used, make sure you did set range correctly
[libx264 @ 0000020b2af300c0] using SAR=1/1
[libx264 @ 0000020b2af300c0] using cpu capabilities: MMX2 SSE2Fast SSSE3 SSE4.2 AVX FMA3 BMI2 AVX2 AVX512
[libx264 @ 0000020b2af300c0] profile High, level 4.2, 4:2:0, 8-bit
[libx264 @ 0000020b2af300c0] 264 - core 165 r3223 0480cb0 - H.264/MPEG-4 AVC codec - Copyleft 2003-2025 - http://www.videolan.org/x264.html - options: cabac=1 ref=1 deblock=1:0:0 analyse=0x3:0x3 me=dia subme=1 psy=1 psy_rd=1.00:0.00 mixed_ref=0 me_range=16 chroma_me=1 trellis=0 8x8dct=1 cqm=0 deadzone=21,11 fast_pskip=1 chroma_qp_offset=0 threads=24 lookahead_threads=4 sliced_threads=0 nr=0 decimate=1 interlaced=0 bluray_compat=0 constrained_intra=0 bframes=3 b_pyramid=2 b_adapt=1 b_bias=0 direct=1 weightb=1 open_gop=0 weightp=1 keyint=250 keyint_min=25 scenecut=40 intra_refresh=0 rc=crf mbtree=0 crf=23.0 qcomp=0.60 qpmin=0 qpmax=69 qpstep=4 ip_ratio=1.40 pb_ratio=1.30 aq=1:1.00
Output #0, mp4, to 'D:\PythonProjects\viral-cutter-ai\benchmarks\runs\20260510_171633\ukraine_war_report\manual_generic\cuts_raw\segment_1_17-40_72_18-16_46.mp4':
  Metadata:
    software        : Lavf62.12.101
    encoder         : Lavf62.12.101
  Stream #0:0: Video: h264 (avc1 / 0x31637661), yuv420p(pc, bt470bg/unknown/unknown, progressive), 1080x1920 [SAR 1:1 DAR 9:16], q=2-31, 60 fps, 15360 tbn
    Metadata:
      encoder         : Lavc62.28.101 libx264
    Side data:
      CPB properties: bitrate max/min/avg: 0/0/0 buffer size: 0 vbv_delay: N/A
  Stream #0:1(eng): Audio: aac (LC) (mp4a / 0x6134706D), 48000 Hz, stereo, fltp, 192 kb/s (default)
    Metadata:
      encoder         : Lavc62.28.101 aac
      handler_name    : SoundHandler
frame=  312 fps=0.0 q=26.0 size=    2048KiB time=00:00:05.20 bitrate=3226.5kbits/s speed=10.3x elapsed=0:00:00.50    frame=  573 fps=560 q=24.0 size=    3840KiB time=00:00:09.55 bitrate=3294.0kbits/s speed=9.33x elapsed=0:00:01.02    frame=  855 fps=555 q=24.0 size=    5888KiB time=00:00:14.25 bitrate=3384.9kbits/s speed=9.25x elapsed=0:00:01.54    frame= 1222 fps=592 q=27.0 size=    8704KiB time=00:00:20.36 bitrate=3501.0kbits/s speed=9.87x elapsed=0:00:02.06    frame= 1623 fps=630 q=24.0 size=   11776KiB time=00:00:27.60 bitrate=3494.6kbits/s speed=10.7x elapsed=0:00:02.57    frame= 2099 fps=679 q=24.0 size=   15104KiB time=00:00:35.54 bitrate=3481.4kbits/s speed=11.5x elapsed=0:00:03.09    [mp4 @ 0000020b2ab000c0] Starting second pass: moving the moov atom to the beginning of the file
[out#0/mp4 @ 0000020b2acf6400] video:14835KiB audio:849KiB subtitle:0KiB other streams:0KiB global headers:0KiB muxing overhead: 0.364155%
frame= 2143 fps=687 q=-1.0 Lsize=   15741KiB time=00:00:35.71 bitrate=3610.3kbits/s speed=11.4x elapsed=0:00:03.11    
[libx264 @ 0000020b2af300c0] frame I:9     Avg QP:15.61  size: 47903
[libx264 @ 0000020b2af300c0] frame P:543   Avg QP:17.56  size: 16688
[libx264 @ 0000020b2af300c0] frame B:1591  Avg QP:19.60  size:  3581
[libx264 @ 0000020b2af300c0] consecutive B-frames:  0.6%  1.1%  0.7% 97.6%
[libx264 @ 0000020b2af300c0] mb I  I16..4: 25.2% 61.8% 13.1%
[libx264 @ 0000020b2af300c0] mb P  I16..4:  7.2% 19.0%  0.8%  P16..4: 28.9%  0.0%  0.0%  0.0%  0.0%    skip:44.1%
[libx264 @ 0000020b2af300c0] mb B  I16..4:  0.7%  0.7%  0.0%  B16..8: 16.0%  0.0%  0.0%  direct: 4.4%  skip:78.2%  L0:43.4% L1:52.4% BI: 4.2%
[libx264 @ 0000020b2af300c0] 8x8 transform intra:67.4% inter:44.8%
[libx264 @ 0000020b2af300c0] coded y,uvDC,uvAC intra: 31.8% 43.3% 9.4% inter: 1.1% 7.7% 0.0%
[libx264 @ 0000020b2af300c0] i16 v,h,dc,p: 53% 18% 10% 19%
[libx264 @ 0000020b2af300c0] i8 v,h,dc,ddl,ddr,vr,hd,vl,hu: 19% 16% 18%  6%  9%  9%  8%  7%  6%
[libx264 @ 0000020b2af300c0] i4 v,h,dc,ddl,ddr,vr,hd,vl,hu: 26% 23% 12%  8%  6%  7%  6%  6%  6%
[libx264 @ 0000020b2af300c0] i8c dc,h,v,p: 49% 18% 18% 15%
[libx264 @ 0000020b2af300c0] Weighted P-Frames: Y:0.0% UV:0.0%
[libx264 @ 0000020b2af300c0] kb/s:3402.44
[aac @ 0000020b2afb4dc0] Qavg: 945.754
W0000 00:00:1778435577.101636   29864 inference_feedback_manager.cc:121] Feedback manager requires a model with a single signature inference. Disabling support for feedback tensors.
ffmpeg version 8.1.1-full_build-www.gyan.dev Copyright (c) 2000-2026 the FFmpeg developers
  built with gcc 15.2.0 (Rev13, Built by MSYS2 project)
  configuration: --enable-gpl --enable-version3 --enable-static --disable-w32threads --disable-autodetect --enable-cairo --enable-fontconfig --enable-iconv --enable-gnutls --enable-lcms2 --enable-libxml2 --enable-gmp --enable-bzlib --enable-lzma --enable-libsnappy --enable-zlib --enable-librist --enable-libsrt --enable-libssh --enable-libzmq --enable-avisynth --enable-libbluray --enable-libcaca --enable-libdvdnav --enable-libdvdread --enable-sdl2 --enable-libaribb24 --enable-libaribcaption --enable-libdav1d --enable-libdavs2 --enable-libopenjpeg --enable-libquirc --enable-libuavs3d --enable-libxevd --enable-libzvbi --enable-liboapv --enable-libqrencode --enable-librav1e --enable-libsvtav1 --enable-libvvenc --enable-libwebp --enable-libx264 --enable-libx265 --enable-libxavs2 --enable-libxeve --enable-libxvid --enable-libaom --enable-libjxl --enable-libsvtjpegxs --enable-libvpx --enable-mediafoundation --enable-libass --enable-frei0r --enable-libfreetype --enable-libfribidi --enable-libharfbuzz --enable-liblensfun --enable-libvidstab --enable-libvmaf --enable-libzimg --enable-amf --enable-cuda-llvm --enable-cuvid --enable-dxva2 --enable-d3d11va --enable-d3d12va --enable-ffnvcodec --enable-libvpl --enable-nvdec --enable-nvenc --enable-vaapi --enable-libshaderc --enable-vulkan --enable-libplacebo --enable-opencl --enable-libcdio --enable-openal --enable-libgme --enable-libmodplug --enable-libopenmpt --enable-libopencore-amrwb --enable-libmp3lame --enable-libshine --enable-libtheora --enable-libtwolame --enable-libvo-amrwbenc --enable-libcodec2 --enable-libilbc --enable-libgsm --enable-liblc3 --enable-libopencore-amrnb --enable-libopus --enable-libspeex --enable-libvorbis --enable-ladspa --enable-libbs2b --enable-libflite --enable-libmysofa --enable-librubberband --enable-libsoxr --enable-chromaprint --enable-whisper
  libavutil      60. 26.101 / 60. 26.101
  libavcodec     62. 28.101 / 62. 28.101
  libavformat    62. 12.101 / 62. 12.101
  libavdevice    62.  3.101 / 62.  3.101
  libavfilter    11. 14.101 / 11. 14.101
  libswscale      9.  5.101 /  9.  5.101
  libswresample   6.  3.101 /  6.  3.101
Input #0, avi, from 'C:\Users\Macie\AppData\Local\Temp\face_track_0_lbm1fb\segment_2_11-56_88_12-27_68_silent.avi':
  Metadata:
    software        : Lavf62.12.101
  Duration: 00:00:30.80, start: 0.000000, bitrate: 7526 kb/s
  Stream #0:0: Video: h264 (High) (H264 / 0x34363248), yuvj420p(pc, bt470bg/unknown/unknown, progressive), 1080x1920 [SAR 1:1 DAR 9:16], 7517 kb/s, 60 fps, 60 tbr, 60 tbn
Input #1, mov,mp4,m4a,3gp,3g2,mj2, from 'C:\Users\Macie\AppData\Local\Temp\face_track_0_lbm1fb\segment_2_11-56_88_12-27_68_audio.m4a':
  Metadata:
    major_brand     : M4A 
    minor_version   : 512
    compatible_brands: M4A isomiso2
    encoder         : Lavf62.12.101
  Duration: 00:00:30.80, start: 0.000000, bitrate: 195 kb/s
  Stream #1:0[0x1](eng): Audio: aac (LC) (mp4a / 0x6134706D), 48000 Hz, stereo, fltp, 193 kb/s (default)
    Metadata:
      handler_name    : SoundHandler
Stream mapping:
  Stream #0:0 -> #0:0 (h264 (native) -> h264 (libx264))
  Stream #1:0 -> #0:1 (aac (native) -> aac (native))
Press [q] to stop, [?] for help
[swscaler @ 00000237e86d6740] deprecated pixel format used, make sure you did set range correctly
[libx264 @ 00000237e6a200c0] using SAR=1/1
[libx264 @ 00000237e6a200c0] using cpu capabilities: MMX2 SSE2Fast SSSE3 SSE4.2 AVX FMA3 BMI2 AVX2 AVX512
[libx264 @ 00000237e6a200c0] profile High, level 4.2, 4:2:0, 8-bit
[libx264 @ 00000237e6a200c0] 264 - core 165 r3223 0480cb0 - H.264/MPEG-4 AVC codec - Copyleft 2003-2025 - http://www.videolan.org/x264.html - options: cabac=1 ref=1 deblock=1:0:0 analyse=0x3:0x3 me=dia subme=1 psy=1 psy_rd=1.00:0.00 mixed_ref=0 me_range=16 chroma_me=1 trellis=0 8x8dct=1 cqm=0 deadzone=21,11 fast_pskip=1 chroma_qp_offset=0 threads=24 lookahead_threads=4 sliced_threads=0 nr=0 decimate=1 interlaced=0 bluray_compat=0 constrained_intra=0 bframes=3 b_pyramid=2 b_adapt=1 b_bias=0 direct=1 weightb=1 open_gop=0 weightp=1 keyint=250 keyint_min=25 scenecut=40 intra_refresh=0 rc=crf mbtree=0 crf=23.0 qcomp=0.60 qpmin=0 qpmax=69 qpstep=4 ip_ratio=1.40 pb_ratio=1.30 aq=1:1.00
Output #0, mp4, to 'D:\PythonProjects\viral-cutter-ai\benchmarks\runs\20260510_171633\ukraine_war_report\manual_generic\cuts_raw\segment_2_11-56_88_12-27_68.mp4':
  Metadata:
    software        : Lavf62.12.101
    encoder         : Lavf62.12.101
  Stream #0:0: Video: h264 (avc1 / 0x31637661), yuv420p(pc, bt470bg/unknown/unknown, progressive), 1080x1920 [SAR 1:1 DAR 9:16], q=2-31, 60 fps, 15360 tbn
    Metadata:
      encoder         : Lavc62.28.101 libx264
    Side data:
      CPB properties: bitrate max/min/avg: 0/0/0 buffer size: 0 vbv_delay: N/A
  Stream #0:1(eng): Audio: aac (LC) (mp4a / 0x6134706D), 48000 Hz, stereo, fltp, 192 kb/s (default)
    Metadata:
      encoder         : Lavc62.28.101 aac
      handler_name    : SoundHandler
frame=  330 fps=0.0 q=25.0 size=    2560KiB time=00:00:05.50 bitrate=3813.1kbits/s speed=10.7x elapsed=0:00:00.51    frame=  573 fps=551 q=25.0 size=    4352KiB time=00:00:09.55 bitrate=3733.2kbits/s speed=9.18x elapsed=0:00:01.04    frame=  862 fps=553 q=24.0 size=    6656KiB time=00:00:14.36 bitrate=3795.3kbits/s speed=9.21x elapsed=0:00:01.55    frame= 1219 fps=591 q=24.0 size=    9216KiB time=00:00:20.84 bitrate=3622.3kbits/s speed=10.1x elapsed=0:00:02.06    frame= 1705 fps=658 q=26.0 size=   12800KiB time=00:00:28.97 bitrate=3619.5kbits/s speed=11.2x elapsed=0:00:02.58    [mp4 @ 00000237e46d6300] Starting second pass: moving the moov atom to the beginning of the file
[out#0/mp4 @ 00000237e6bc2880] video:13391KiB audio:732KiB subtitle:0KiB other streams:0KiB global headers:0KiB muxing overhead: 0.349684%
frame= 1846 fps=678 q=-1.0 Lsize=   14173KiB time=00:00:30.76 bitrate=3773.6kbits/s speed=11.3x elapsed=0:00:02.72    
[libx264 @ 00000237e6a200c0] frame I:8     Avg QP:15.90  size: 52581
[libx264 @ 00000237e6a200c0] frame P:467   Avg QP:17.89  size: 17510
[libx264 @ 00000237e6a200c0] frame B:1371  Avg QP:20.02  size:  3730
[libx264 @ 00000237e6a200c0] consecutive B-frames:  0.8%  0.5%  0.3% 98.4%
[libx264 @ 00000237e6a200c0] mb I  I16..4: 22.5% 63.1% 14.4%
[libx264 @ 00000237e6a200c0] mb P  I16..4:  7.0% 18.9%  1.0%  P16..4: 29.8%  0.0%  0.0%  0.0%  0.0%    skip:43.3%
[libx264 @ 00000237e6a200c0] mb B  I16..4:  0.6%  0.8%  0.0%  B16..8: 16.2%  0.0%  0.0%  direct: 4.6%  skip:77.8%  L0:43.7% L1:51.8% BI: 4.5%
[libx264 @ 00000237e6a200c0] 8x8 transform intra:67.9% inter:44.9%
[libx264 @ 00000237e6a200c0] coded y,uvDC,uvAC intra: 34.1% 47.3% 11.1% inter: 1.1% 8.2% 0.0%
[libx264 @ 00000237e6a200c0] i16 v,h,dc,p: 51% 18% 10% 21%
[libx264 @ 00000237e6a200c0] i8 v,h,dc,ddl,ddr,vr,hd,vl,hu: 17% 18% 18%  7%  9%  9%  9%  6%  8%
[libx264 @ 00000237e6a200c0] i4 v,h,dc,ddl,ddr,vr,hd,vl,hu: 23% 25% 12%  9%  7%  6%  6%  5%  7%
[libx264 @ 00000237e6a200c0] i8c dc,h,v,p: 46% 19% 19% 16%
[libx264 @ 00000237e6a200c0] Weighted P-Frames: Y:0.0% UV:0.0%
[libx264 @ 00000237e6a200c0] kb/s:3565.41
[aac @ 00000237e6ad5840] Qavg: 896.300
W0000 00:00:1778435608.556808   31620 inference_feedback_manager.cc:121] Feedback manager requires a model with a single signature inference. Disabling support for feedback tensors.
ffmpeg version 8.1.1-full_build-www.gyan.dev Copyright (c) 2000-2026 the FFmpeg developers
  built with gcc 15.2.0 (Rev13, Built by MSYS2 project)
  configuration: --enable-gpl --enable-version3 --enable-static --disable-w32threads --disable-autodetect --enable-cairo --enable-fontconfig --enable-iconv --enable-gnutls --enable-lcms2 --enable-libxml2 --enable-gmp --enable-bzlib --enable-lzma --enable-libsnappy --enable-zlib --enable-librist --enable-libsrt --enable-libssh --enable-libzmq --enable-avisynth --enable-libbluray --enable-libcaca --enable-libdvdnav --enable-libdvdread --enable-sdl2 --enable-libaribb24 --enable-libaribcaption --enable-libdav1d --enable-libdavs2 --enable-libopenjpeg --enable-libquirc --enable-libuavs3d --enable-libxevd --enable-libzvbi --enable-liboapv --enable-libqrencode --enable-librav1e --enable-libsvtav1 --enable-libvvenc --enable-libwebp --enable-libx264 --enable-libx265 --enable-libxavs2 --enable-libxeve --enable-libxvid --enable-libaom --enable-libjxl --enable-libsvtjpegxs --enable-libvpx --enable-mediafoundation --enable-libass --enable-frei0r --enable-libfreetype --enable-libfribidi --enable-libharfbuzz --enable-liblensfun --enable-libvidstab --enable-libvmaf --enable-libzimg --enable-amf --enable-cuda-llvm --enable-cuvid --enable-dxva2 --enable-d3d11va --enable-d3d12va --enable-ffnvcodec --enable-libvpl --enable-nvdec --enable-nvenc --enable-vaapi --enable-libshaderc --enable-vulkan --enable-libplacebo --enable-opencl --enable-libcdio --enable-openal --enable-libgme --enable-libmodplug --enable-libopenmpt --enable-libopencore-amrwb --enable-libmp3lame --enable-libshine --enable-libtheora --enable-libtwolame --enable-libvo-amrwbenc --enable-libcodec2 --enable-libilbc --enable-libgsm --enable-liblc3 --enable-libopencore-amrnb --enable-libopus --enable-libspeex --enable-libvorbis --enable-ladspa --enable-libbs2b --enable-libflite --enable-libmysofa --enable-librubberband --enable-libsoxr --enable-chromaprint --enable-whisper
  libavutil      60. 26.101 / 60. 26.101
  libavcodec     62. 28.101 / 62. 28.101
  libavformat    62. 12.101 / 62. 12.101
  libavdevice    62.  3.101 / 62.  3.101
  libavfilter    11. 14.101 / 11. 14.101
  libswscale      9.  5.101 /  9.  5.101
  libswresample   6.  3.101 /  6.  3.101
Input #0, avi, from 'C:\Users\Macie\AppData\Local\Temp\face_track_gzywgwoi\segment_3_20-43_05_21-13_50_silent.avi':
  Metadata:
    software        : Lavf62.12.101
  Duration: 00:00:30.45, start: 0.000000, bitrate: 5831 kb/s
  Stream #0:0: Video: h264 (High) (H264 / 0x34363248), yuvj420p(pc, bt470bg/unknown/unknown, progressive), 1080x1920 [SAR 1:1 DAR 9:16], 5821 kb/s, 60 fps, 60 tbr, 60 tbn
Input #1, mov,mp4,m4a,3gp,3g2,mj2, from 'C:\Users\Macie\AppData\Local\Temp\face_track_gzywgwoi\segment_3_20-43_05_21-13_50_audio.m4a':
  Metadata:
    major_brand     : M4A 
    minor_version   : 512
    compatible_brands: M4A isomiso2
    encoder         : Lavf62.12.101
  Duration: 00:00:30.45, start: 0.000000, bitrate: 194 kb/s
  Stream #1:0[0x1](eng): Audio: aac (LC) (mp4a / 0x6134706D), 48000 Hz, stereo, fltp, 193 kb/s (default)
    Metadata:
      handler_name    : SoundHandler
Stream mapping:
  Stream #0:0 -> #0:0 (h264 (native) -> h264 (libx264))
  Stream #1:0 -> #0:1 (aac (native) -> aac (native))
Press [q] to stop, [?] for help
[swscaler @ 000002496256f680] deprecated pixel format used, make sure you did set range correctly
[libx264 @ 0000024960b30300] using SAR=1/1
[libx264 @ 0000024960b30300] using cpu capabilities: MMX2 SSE2Fast SSSE3 SSE4.2 AVX FMA3 BMI2 AVX2 AVX512
[libx264 @ 0000024960b30300] profile High, level 4.2, 4:2:0, 8-bit
[libx264 @ 0000024960b30300] 264 - core 165 r3223 0480cb0 - H.264/MPEG-4 AVC codec - Copyleft 2003-2025 - http://www.videolan.org/x264.html - options: cabac=1 ref=1 deblock=1:0:0 analyse=0x3:0x3 me=dia subme=1 psy=1 psy_rd=1.00:0.00 mixed_ref=0 me_range=16 chroma_me=1 trellis=0 8x8dct=1 cqm=0 deadzone=21,11 fast_pskip=1 chroma_qp_offset=0 threads=24 lookahead_threads=4 sliced_threads=0 nr=0 decimate=1 interlaced=0 bluray_compat=0 constrained_intra=0 bframes=3 b_pyramid=2 b_adapt=1 b_bias=0 direct=1 weightb=1 open_gop=0 weightp=1 keyint=250 keyint_min=25 scenecut=40 intra_refresh=0 rc=crf mbtree=0 crf=23.0 qcomp=0.60 qpmin=0 qpmax=69 qpstep=4 ip_ratio=1.40 pb_ratio=1.30 aq=1:1.00
Output #0, mp4, to 'D:\PythonProjects\viral-cutter-ai\benchmarks\runs\20260510_171633\ukraine_war_report\manual_generic\cuts_raw\segment_3_20-43_05_21-13_50.mp4':
  Metadata:
    software        : Lavf62.12.101
    encoder         : Lavf62.12.101
  Stream #0:0: Video: h264 (avc1 / 0x31637661), yuv420p(pc, bt470bg/unknown/unknown, progressive), 1080x1920 [SAR 1:1 DAR 9:16], q=2-31, 60 fps, 15360 tbn
    Metadata:
      encoder         : Lavc62.28.101 libx264
    Side data:
      CPB properties: bitrate max/min/avg: 0/0/0 buffer size: 0 vbv_delay: N/A
  Stream #0:1(eng): Audio: aac (LC) (mp4a / 0x6134706D), 48000 Hz, stereo, fltp, 192 kb/s (default)
    Metadata:
      encoder         : Lavc62.28.101 aac
      handler_name    : SoundHandler
frame=  371 fps=0.0 q=20.0 size=    2048KiB time=00:00:06.18 bitrate=2713.4kbits/s speed=11.9x elapsed=0:00:00.51    frame=  582 fps=564 q=20.0 size=    2304KiB time=00:00:09.70 bitrate=1945.9kbits/s speed= 9.4x elapsed=0:00:01.03    frame=  998 fps=642 q=23.0 size=    4608KiB time=00:00:16.63 bitrate=2269.5kbits/s speed=10.7x elapsed=0:00:01.55    frame= 1437 fps=696 q=25.0 size=    7424KiB time=00:00:24.49 bitrate=2483.3kbits/s speed=11.9x elapsed=0:00:02.06    [mp4 @ 0000024960700480] Starting second pass: moving the moov atom to the beginning of the file
[out#0/mp4 @ 00000249608f7580] video:9639KiB audio:720KiB subtitle:0KiB other streams:0KiB global headers:0KiB muxing overhead: 0.471482%
frame= 1825 fps=743 q=-1.0 Lsize=   10408KiB time=00:00:30.41 bitrate=2803.3kbits/s speed=12.4x elapsed=0:00:02.45    
[libx264 @ 0000024960b30300] frame I:9     Avg QP:13.98  size: 71977
[libx264 @ 0000024960b30300] frame P:463   Avg QP:16.54  size: 12015
[libx264 @ 0000024960b30300] frame B:1353  Avg QP:18.56  size:  2705
[libx264 @ 0000024960b30300] consecutive B-frames:  0.7%  1.1%  0.7% 97.5%
[libx264 @ 0000024960b30300] mb I  I16..4: 31.0% 47.9% 21.0%
[libx264 @ 0000024960b30300] mb P  I16..4:  5.0% 11.4%  0.4%  P16..4: 26.2%  0.0%  0.0%  0.0%  0.0%    skip:57.0%
[libx264 @ 0000024960b30300] mb B  I16..4:  0.4%  0.3%  0.0%  B16..8: 12.6%  0.0%  0.0%  direct: 3.9%  skip:82.7%  L0:42.5% L1:53.4% BI: 4.2%
[libx264 @ 0000024960b30300] 8x8 transform intra:63.2% inter:43.0%
[libx264 @ 0000024960b30300] coded y,uvDC,uvAC intra: 31.7% 40.9% 10.6% inter: 1.0% 6.5% 0.0%
[libx264 @ 0000024960b30300] i16 v,h,dc,p: 56% 19%  9% 15%
[libx264 @ 0000024960b30300] i8 v,h,dc,ddl,ddr,vr,hd,vl,hu: 19% 16% 20%  6%  9%  9%  9%  6%  6%
[libx264 @ 0000024960b30300] i4 v,h,dc,ddl,ddr,vr,hd,vl,hu: 25% 25% 11%  7%  6%  6%  6%  5%  7%
[libx264 @ 0000024960b30300] i8c dc,h,v,p: 53% 17% 17% 13%
[libx264 @ 0000024960b30300] Weighted P-Frames: Y:0.0% UV:0.0%
[libx264 @ 0000024960b30300] kb/s:2595.91
[aac @ 0000024960bb3c40] Qavg: 1207.334
W0000 00:00:1778435638.538450   30160 inference_feedback_manager.cc:121] Feedback manager requires a model with a single signature inference. Disabling support for feedback tensors.
ffmpeg version 8.1.1-full_build-www.gyan.dev Copyright (c) 2000-2026 the FFmpeg developers
  built with gcc 15.2.0 (Rev13, Built by MSYS2 project)
  configuration: --enable-gpl --enable-version3 --enable-static --disable-w32threads --disable-autodetect --enable-cairo --enable-fontconfig --enable-iconv --enable-gnutls --enable-lcms2 --enable-libxml2 --enable-gmp --enable-bzlib --enable-lzma --enable-libsnappy --enable-zlib --enable-librist --enable-libsrt --enable-libssh --enable-libzmq --enable-avisynth --enable-libbluray --enable-libcaca --enable-libdvdnav --enable-libdvdread --enable-sdl2 --enable-libaribb24 --enable-libaribcaption --enable-libdav1d --enable-libdavs2 --enable-libopenjpeg --enable-libquirc --enable-libuavs3d --enable-libxevd --enable-libzvbi --enable-liboapv --enable-libqrencode --enable-librav1e --enable-libsvtav1 --enable-libvvenc --enable-libwebp --enable-libx264 --enable-libx265 --enable-libxavs2 --enable-libxeve --enable-libxvid --enable-libaom --enable-libjxl --enable-libsvtjpegxs --enable-libvpx --enable-mediafoundation --enable-libass --enable-frei0r --enable-libfreetype --enable-libfribidi --enable-libharfbuzz --enable-liblensfun --enable-libvidstab --enable-libvmaf --enable-libzimg --enable-amf --enable-cuda-llvm --enable-cuvid --enable-dxva2 --enable-d3d11va --enable-d3d12va --enable-ffnvcodec --enable-libvpl --enable-nvdec --enable-nvenc --enable-vaapi --enable-libshaderc --enable-vulkan --enable-libplacebo --enable-opencl --enable-libcdio --enable-openal --enable-libgme --enable-libmodplug --enable-libopenmpt --enable-libopencore-amrwb --enable-libmp3lame --enable-libshine --enable-libtheora --enable-libtwolame --enable-libvo-amrwbenc --enable-libcodec2 --enable-libilbc --enable-libgsm --enable-liblc3 --enable-libopencore-amrnb --enable-libopus --enable-libspeex --enable-libvorbis --enable-ladspa --enable-libbs2b --enable-libflite --enable-libmysofa --enable-librubberband --enable-libsoxr --enable-chromaprint --enable-whisper
  libavutil      60. 26.101 / 60. 26.101
  libavcodec     62. 28.101 / 62. 28.101
  libavformat    62. 12.101 / 62. 12.101
  libavdevice    62.  3.101 / 62.  3.101
  libavfilter    11. 14.101 / 11. 14.101
  libswscale      9.  5.101 /  9.  5.101
  libswresample   6.  3.101 /  6.  3.101
Input #0, avi, from 'C:\Users\Macie\AppData\Local\Temp\face_track_gs0q5q9o\segment_4_10-12_83_10-48_78_silent.avi':
  Metadata:
    software        : Lavf62.12.101
  Duration: 00:00:35.95, start: 0.000000, bitrate: 4087 kb/s
  Stream #0:0: Video: h264 (High) (H264 / 0x34363248), yuvj420p(pc, bt470bg/unknown/unknown, progressive), 1080x1920 [SAR 1:1 DAR 9:16], 4076 kb/s, 60 fps, 60 tbr, 60 tbn
Input #1, mov,mp4,m4a,3gp,3g2,mj2, from 'C:\Users\Macie\AppData\Local\Temp\face_track_gs0q5q9o\segment_4_10-12_83_10-48_78_audio.m4a':
  Metadata:
    major_brand     : M4A 
    minor_version   : 512
    compatible_brands: M4A isomiso2
    encoder         : Lavf62.12.101
  Duration: 00:00:35.95, start: 0.000000, bitrate: 195 kb/s
  Stream #1:0[0x1](eng): Audio: aac (LC) (mp4a / 0x6134706D), 48000 Hz, stereo, fltp, 193 kb/s (default)
    Metadata:
      handler_name    : SoundHandler
Stream mapping:
  Stream #0:0 -> #0:0 (h264 (native) -> h264 (libx264))
  Stream #1:0 -> #0:1 (aac (native) -> aac (native))
Press [q] to stop, [?] for help
[swscaler @ 0000017fe309e900] deprecated pixel format used, make sure you did set range correctly
[libx264 @ 0000017fe11f0780] using SAR=1/1
[libx264 @ 0000017fe11f0780] using cpu capabilities: MMX2 SSE2Fast SSSE3 SSE4.2 AVX FMA3 BMI2 AVX2 AVX512
[libx264 @ 0000017fe11f0780] profile High, level 4.2, 4:2:0, 8-bit
[libx264 @ 0000017fe11f0780] 264 - core 165 r3223 0480cb0 - H.264/MPEG-4 AVC codec - Copyleft 2003-2025 - http://www.videolan.org/x264.html - options: cabac=1 ref=1 deblock=1:0:0 analyse=0x3:0x3 me=dia subme=1 psy=1 psy_rd=1.00:0.00 mixed_ref=0 me_range=16 chroma_me=1 trellis=0 8x8dct=1 cqm=0 deadzone=21,11 fast_pskip=1 chroma_qp_offset=0 threads=24 lookahead_threads=4 sliced_threads=0 nr=0 decimate=1 interlaced=0 bluray_compat=0 constrained_intra=0 bframes=3 b_pyramid=2 b_adapt=1 b_bias=0 direct=1 weightb=1 open_gop=0 weightp=1 keyint=250 keyint_min=25 scenecut=40 intra_refresh=0 rc=crf mbtree=0 crf=23.0 qcomp=0.60 qpmin=0 qpmax=69 qpstep=4 ip_ratio=1.40 pb_ratio=1.30 aq=1:1.00
Output #0, mp4, to 'D:\PythonProjects\viral-cutter-ai\benchmarks\runs\20260510_171633\ukraine_war_report\manual_generic\cuts_raw\segment_4_10-12_83_10-48_78.mp4':
  Metadata:
    software        : Lavf62.12.101
    encoder         : Lavf62.12.101
  Stream #0:0: Video: h264 (avc1 / 0x31637661), yuv420p(pc, bt470bg/unknown/unknown, progressive), 1080x1920 [SAR 1:1 DAR 9:16], q=2-31, 60 fps, 15360 tbn
    Metadata:
      encoder         : Lavc62.28.101 libx264
    Side data:
      CPB properties: bitrate max/min/avg: 0/0/0 buffer size: 0 vbv_delay: N/A
  Stream #0:1(eng): Audio: aac (LC) (mp4a / 0x6134706D), 48000 Hz, stereo, fltp, 192 kb/s (default)
    Metadata:
      encoder         : Lavc62.28.101 aac
      handler_name    : SoundHandler
frame=  335 fps=0.0 q=25.0 size=    2304KiB time=00:00:05.58 bitrate=3380.6kbits/s speed=10.9x elapsed=0:00:00.51    frame=  573 fps=561 q=24.0 size=    3840KiB time=00:00:09.55 bitrate=3294.0kbits/s speed=9.35x elapsed=0:00:01.02    frame=  928 fps=599 q=20.0 size=    6144KiB time=00:00:15.46 bitrate=3254.2kbits/s speed=9.98x elapsed=0:00:01.54    frame= 1370 fps=666 q=20.0 size=    6912KiB time=00:00:22.83 bitrate=2479.9kbits/s speed=11.1x elapsed=0:00:02.05    frame= 1914 fps=744 q=19.0 size=    7424KiB time=00:00:32.46 bitrate=1873.1kbits/s speed=12.6x elapsed=0:00:02.57    [mp4 @ 0000017fe13d1240] Starting second pass: moving the moov atom to the beginning of the file
[out#0/mp4 @ 0000017fe13e7540] video:8302KiB audio:850KiB subtitle:0KiB other streams:0KiB global headers:0KiB muxing overhead: 0.627844%
frame= 2156 fps=762 q=-1.0 Lsize=    9210KiB time=00:00:35.93 bitrate=2099.7kbits/s speed=12.7x elapsed=0:00:02.82    
[libx264 @ 0000017fe11f0780] frame I:10    Avg QP:12.60  size: 86375
[libx264 @ 0000017fe11f0780] frame P:551   Avg QP:14.04  size:  8366
[libx264 @ 0000017fe11f0780] frame B:1595  Avg QP:16.19  size:  1898
[libx264 @ 0000017fe11f0780] consecutive B-frames:  0.6%  2.0%  0.7% 96.7%
[libx264 @ 0000017fe11f0780] mb I  I16..4: 38.2% 34.8% 27.0%
[libx264 @ 0000017fe11f0780] mb P  I16..4:  4.3%  8.5%  0.3%  P16..4: 16.5%  0.0%  0.0%  0.0%  0.0%    skip:70.4%
[libx264 @ 0000017fe11f0780] mb B  I16..4:  0.4%  0.3%  0.0%  B16..8:  8.2%  0.0%  0.0%  direct: 2.7%  skip:88.4%  L0:44.9% L1:51.3% BI: 3.9%
[libx264 @ 0000017fe11f0780] 8x8 transform intra:58.6% inter:39.4%
[libx264 @ 0000017fe11f0780] coded y,uvDC,uvAC intra: 29.0% 35.4% 9.2% inter: 0.7% 4.2% 0.0%
[libx264 @ 0000017fe11f0780] i16 v,h,dc,p: 60% 19%  9% 13%
[libx264 @ 0000017fe11f0780] i8 v,h,dc,ddl,ddr,vr,hd,vl,hu: 19% 17% 21%  6%  9%  9%  8%  6%  6%
[libx264 @ 0000017fe11f0780] i4 v,h,dc,ddl,ddr,vr,hd,vl,hu: 26% 21% 12%  7%  6%  9%  6%  5%  8%
[libx264 @ 0000017fe11f0780] i8c dc,h,v,p: 57% 16% 16% 11%
[libx264 @ 0000017fe11f0780] Weighted P-Frames: Y:0.0% UV:0.0%
[libx264 @ 0000017fe11f0780] kb/s:1892.62
[aac @ 0000017fe11eb000] Qavg: 784.165
W0000 00:00:1778435670.810112    8080 inference_feedback_manager.cc:121] Feedback manager requires a model with a single signature inference. Disabling support for feedback tensors.
ffmpeg version 8.1.1-full_build-www.gyan.dev Copyright (c) 2000-2026 the FFmpeg developers
  built with gcc 15.2.0 (Rev13, Built by MSYS2 project)
  configuration: --enable-gpl --enable-version3 --enable-static --disable-w32threads --disable-autodetect --enable-cairo --enable-fontconfig --enable-iconv --enable-gnutls --enable-lcms2 --enable-libxml2 --enable-gmp --enable-bzlib --enable-lzma --enable-libsnappy --enable-zlib --enable-librist --enable-libsrt --enable-libssh --enable-libzmq --enable-avisynth --enable-libbluray --enable-libcaca --enable-libdvdnav --enable-libdvdread --enable-sdl2 --enable-libaribb24 --enable-libaribcaption --enable-libdav1d --enable-libdavs2 --enable-libopenjpeg --enable-libquirc --enable-libuavs3d --enable-libxevd --enable-libzvbi --enable-liboapv --enable-libqrencode --enable-librav1e --enable-libsvtav1 --enable-libvvenc --enable-libwebp --enable-libx264 --enable-libx265 --enable-libxavs2 --enable-libxeve --enable-libxvid --enable-libaom --enable-libjxl --enable-libsvtjpegxs --enable-libvpx --enable-mediafoundation --enable-libass --enable-frei0r --enable-libfreetype --enable-libfribidi --enable-libharfbuzz --enable-liblensfun --enable-libvidstab --enable-libvmaf --enable-libzimg --enable-amf --enable-cuda-llvm --enable-cuvid --enable-dxva2 --enable-d3d11va --enable-d3d12va --enable-ffnvcodec --enable-libvpl --enable-nvdec --enable-nvenc --enable-vaapi --enable-libshaderc --enable-vulkan --enable-libplacebo --enable-opencl --enable-libcdio --enable-openal --enable-libgme --enable-libmodplug --enable-libopenmpt --enable-libopencore-amrwb --enable-libmp3lame --enable-libshine --enable-libtheora --enable-libtwolame --enable-libvo-amrwbenc --enable-libcodec2 --enable-libilbc --enable-libgsm --enable-liblc3 --enable-libopencore-amrnb --enable-libopus --enable-libspeex --enable-libvorbis --enable-ladspa --enable-libbs2b --enable-libflite --enable-libmysofa --enable-librubberband --enable-libsoxr --enable-chromaprint --enable-whisper
  libavutil      60. 26.101 / 60. 26.101
  libavcodec     62. 28.101 / 62. 28.101
  libavformat    62. 12.101 / 62. 12.101
  libavdevice    62.  3.101 / 62.  3.101
  libavfilter    11. 14.101 / 11. 14.101
  libswscale      9.  5.101 /  9.  5.101
  libswresample   6.  3.101 /  6.  3.101
Input #0, avi, from 'C:\Users\Macie\AppData\Local\Temp\face_track_sqh5_jxt\segment_5_22-39_10_23-23_72_silent.avi':
  Metadata:
    software        : Lavf62.12.101
  Duration: 00:00:44.62, start: 0.000000, bitrate: 6892 kb/s
  Stream #0:0: Video: h264 (High) (H264 / 0x34363248), yuvj420p(pc, bt470bg/unknown/unknown, progressive), 1080x1920 [SAR 1:1 DAR 9:16], 6881 kb/s, 60 fps, 60 tbr, 60 tbn
Input #1, mov,mp4,m4a,3gp,3g2,mj2, from 'C:\Users\Macie\AppData\Local\Temp\face_track_sqh5_jxt\segment_5_22-39_10_23-23_72_audio.m4a':
  Metadata:
    major_brand     : M4A 
    minor_version   : 512
    compatible_brands: M4A isomiso2
    encoder         : Lavf62.12.101
  Duration: 00:00:44.62, start: 0.000000, bitrate: 195 kb/s
  Stream #1:0[0x1](eng): Audio: aac (LC) (mp4a / 0x6134706D), 48000 Hz, stereo, fltp, 193 kb/s (default)
    Metadata:
      handler_name    : SoundHandler
Stream mapping:
  Stream #0:0 -> #0:0 (h264 (native) -> h264 (libx264))
  Stream #1:0 -> #0:1 (aac (native) -> aac (native))
Press [q] to stop, [?] for help
[swscaler @ 0000023d03ff3500] deprecated pixel format used, make sure you did set range correctly
[libx264 @ 0000023d02530a00] using SAR=1/1
[libx264 @ 0000023d02530a00] using cpu capabilities: MMX2 SSE2Fast SSSE3 SSE4.2 AVX FMA3 BMI2 AVX2 AVX512
[libx264 @ 0000023d02530a00] profile High, level 4.2, 4:2:0, 8-bit
[libx264 @ 0000023d02530a00] 264 - core 165 r3223 0480cb0 - H.264/MPEG-4 AVC codec - Copyleft 2003-2025 - http://www.videolan.org/x264.html - options: cabac=1 ref=1 deblock=1:0:0 analyse=0x3:0x3 me=dia subme=1 psy=1 psy_rd=1.00:0.00 mixed_ref=0 me_range=16 chroma_me=1 trellis=0 8x8dct=1 cqm=0 deadzone=21,11 fast_pskip=1 chroma_qp_offset=0 threads=24 lookahead_threads=4 sliced_threads=0 nr=0 decimate=1 interlaced=0 bluray_compat=0 constrained_intra=0 bframes=3 b_pyramid=2 b_adapt=1 b_bias=0 direct=1 weightb=1 open_gop=0 weightp=1 keyint=250 keyint_min=25 scenecut=40 intra_refresh=0 rc=crf mbtree=0 crf=23.0 qcomp=0.60 qpmin=0 qpmax=69 qpstep=4 ip_ratio=1.40 pb_ratio=1.30 aq=1:1.00
Output #0, mp4, to 'D:\PythonProjects\viral-cutter-ai\benchmarks\runs\20260510_171633\ukraine_war_report\manual_generic\cuts_raw\segment_5_22-39_10_23-23_72.mp4':
  Metadata:
    software        : Lavf62.12.101
    encoder         : Lavf62.12.101
  Stream #0:0: Video: h264 (avc1 / 0x31637661), yuv420p(pc, bt470bg/unknown/unknown, progressive), 1080x1920 [SAR 1:1 DAR 9:16], q=2-31, 60 fps, 15360 tbn
    Metadata:
      encoder         : Lavc62.28.101 libx264
    Side data:
      CPB properties: bitrate max/min/avg: 0/0/0 buffer size: 0 vbv_delay: N/A
  Stream #0:1(eng): Audio: aac (LC) (mp4a / 0x6134706D), 48000 Hz, stereo, fltp, 192 kb/s (default)
    Metadata:
      encoder         : Lavc62.28.101 aac
      handler_name    : SoundHandler
frame=  333 fps=0.0 q=26.0 size=    2304KiB time=00:00:05.55 bitrate=3400.9kbits/s speed=10.8x elapsed=0:00:00.51    frame=  573 fps=549 q=25.0 size=    3840KiB time=00:00:09.55 bitrate=3294.0kbits/s speed=9.15x elapsed=0:00:01.04    frame=  876 fps=565 q=26.0 size=    5632KiB time=00:00:14.60 bitrate=3160.1kbits/s speed=9.42x elapsed=0:00:01.54    frame= 1246 fps=600 q=25.0 size=    7936KiB time=00:00:20.76 bitrate=3130.6kbits/s speed=  10x elapsed=0:00:02.07    frame= 1617 fps=626 q=26.0 size=   10496KiB time=00:00:26.95 bitrate=3190.5kbits/s speed=10.4x elapsed=0:00:02.58    frame= 1999 fps=646 q=24.0 size=   13056KiB time=00:00:33.31 bitrate=3210.3kbits/s speed=10.8x elapsed=0:00:03.09    frame= 2489 fps=688 q=26.0 size=   16384KiB time=00:00:42.02 bitrate=3193.6kbits/s speed=11.6x elapsed=0:00:03.61    [mp4 @ 0000023d0270bc80] Starting second pass: moving the moov atom to the beginning of the file
[out#0/mp4 @ 0000023d0018ea00] video:16718KiB audio:1062KiB subtitle:0KiB other streams:0KiB global headers:0KiB muxing overhead: 0.398961%
frame= 2675 fps=703 q=-1.0 Lsize=   17851KiB time=00:00:44.58 bitrate=3280.0kbits/s speed=11.7x elapsed=0:00:03.80    
[libx264 @ 0000023d02530a00] frame I:11    Avg QP:15.23  size: 49345
[libx264 @ 0000023d02530a00] frame P:688   Avg QP:17.24  size: 14838
[libx264 @ 0000023d02530a00] frame B:1976  Avg QP:19.27  size:  3222
[libx264 @ 0000023d02530a00] consecutive B-frames:  0.5%  2.8%  0.9% 95.9%
[libx264 @ 0000023d02530a00] mb I  I16..4: 26.0% 60.2% 13.8%
[libx264 @ 0000023d02530a00] mb P  I16..4:  6.3% 15.2%  0.6%  P16..4: 29.6%  0.0%  0.0%  0.0%  0.0%    skip:48.3%
[libx264 @ 0000023d02530a00] mb B  I16..4:  0.6%  0.5%  0.0%  B16..8: 14.4%  0.0%  0.0%  direct: 4.4%  skip:80.2%  L0:44.2% L1:51.4% BI: 4.5%
[libx264 @ 0000023d02530a00] 8x8 transform intra:65.6% inter:45.0%
[libx264 @ 0000023d02530a00] coded y,uvDC,uvAC intra: 31.6% 43.0% 9.8% inter: 1.1% 7.5% 0.0%
[libx264 @ 0000023d02530a00] i16 v,h,dc,p: 55% 18% 10% 17%
[libx264 @ 0000023d02530a00] i8 v,h,dc,ddl,ddr,vr,hd,vl,hu: 18% 17% 19%  6%  9%  9%  9%  6%  6%
[libx264 @ 0000023d02530a00] i4 v,h,dc,ddl,ddr,vr,hd,vl,hu: 24% 25% 12%  7%  6%  6%  6%  5%  7%
[libx264 @ 0000023d02530a00] i8c dc,h,v,p: 50% 18% 17% 14%
[libx264 @ 0000023d02530a00] Weighted P-Frames: Y:0.0% UV:0.0%
[libx264 @ 0000023d02530a00] kb/s:3071.73
[aac @ 0000023d021be340] Qavg: 1526.301
Cutting segment 1: 1060.72s - 1096.46s -> D:\PythonProjects\viral-cutter-ai\benchmarks\runs\20260510_171633\ukraine_war_report\manual_generic\cuts_raw\segment_1_17-40_72_18-16_46.mp4
Cutting segment 2: 716.88s - 747.68s -> D:\PythonProjects\viral-cutter-ai\benchmarks\runs\20260510_171633\ukraine_war_report\manual_generic\cuts_raw\segment_2_11-56_88_12-27_68.mp4
Cutting segment 3: 1243.05s - 1273.50s -> D:\PythonProjects\viral-cutter-ai\benchmarks\runs\20260510_171633\ukraine_war_report\manual_generic\cuts_raw\segment_3_20-43_05_21-13_50.mp4
Cutting segment 4: 612.83s - 648.78s -> D:\PythonProjects\viral-cutter-ai\benchmarks\runs\20260510_171633\ukraine_war_report\manual_generic\cuts_raw\segment_4_10-12_83_10-48_78.mp4
Cutting segment 5: 1359.10s - 1403.72s -> D:\PythonProjects\viral-cutter-ai\benchmarks\runs\20260510_171633\ukraine_war_report\manual_generic\cuts_raw\segment_5_22-39_10_23-23_72.mp4
Done. Files saved in D:\PythonProjects\viral-cutter-ai\benchmarks\runs\20260510_171633\ukraine_war_report\manual_generic\cuts_raw
$ D:\PythonProjects\viral-cutter-ai\.venv\Scripts\python.exe D:\PythonProjects\viral-cutter-ai\cutter.py --video D:\PythonProjects\viral-cutter-ai\benchmarks\assets\ukraine_war_report\input\source.mp4 --windows D:\PythonProjects\viral-cutter-ai\benchmarks\runs\20260510_171633\ukraine_war_report\manual_generic\top_windows.json --transcript D:\PythonProjects\viral-cutter-ai\benchmarks\runs\20260510_171633\ukraine_war_report\shared\transcript.json --output-dir D:\PythonProjects\viral-cutter-ai\benchmarks\runs\20260510_171633\ukraine_war_report\manual_generic\cuts_raw --cutting-log D:\PythonProjects\viral-cutter-ai\benchmarks\runs\20260510_171633\ukraine_war_report\manual_generic\cutting_logic.json

